<?xml version="1.0" encoding="utf-8"?>
<!-- Generator: Adobe Illustrator 17.0.0, SVG Export Plug-In . SVG Version: 6.00 Build 0)  -->
<!DOCTYPE svg PUBLIC "-//W3C//DTD SVG 1.1//EN" "http://www.w3.org/Graphics/SVG/1.1/DTD/svg11.dtd">
<svg version="1.1" id="Vrstva_1" xmlns="http://www.w3.org/2000/svg" xmlns:xlink="http://www.w3.org/1999/xlink" x="0px" y="0px"
	 width="400px" height="300px" viewBox="0 0 400 300" enable-background="new 0 0 400 300" xml:space="preserve">
<g opacity="0.5">
	<g>
		
			<ellipse transform="matrix(0.2546 -0.9671 0.9671 0.2546 -23.0936 363.2697)" fill-rule="evenodd" clip-rule="evenodd" fill="#DDD2CE" cx="224.093" cy="196.615" rx="62.043" ry="28.492"/>
		<path fill-rule="evenodd" clip-rule="evenodd" fill="#FFFFFF" d="M236.868,142.602c0.197-0.746,0.959-1.191,1.707-0.995
			c0.746,0.196,1.19,0.961,0.993,1.706l-8.316,31.621l16.831-9.546c0.672-0.38,1.525-0.143,1.904,0.529
			c0.38,0.673,0.142,1.526-0.529,1.905l-19.199,10.89l-9.36,35.59l22.281-18.499c0.592-0.494,1.476-0.414,1.969,0.179
			c0.494,0.593,0.414,1.475-0.178,1.97l-25.296,20.999l-5.092,19.36l21.389-13.06c0.66-0.402,1.52-0.192,1.922,0.466
			c0.402,0.66,0.193,1.521-0.467,1.922l-23.87,14.576l-1.426,5.418c0.162,0.301,0.215,0.663,0.121,1.02
			c-0.197,0.749-0.963,1.196-1.713,0.999l-1.708-0.45l2.036-7.742l-9.062-18.759c-0.338-0.695-0.045-1.532,0.65-1.869
			c0.695-0.336,1.532-0.044,1.866,0.65l7.64,15.814l5.005-19.032l-13.118-31.506c-0.297-0.714,0.04-1.534,0.753-1.83
			c0.713-0.298,1.534,0.04,1.83,0.753l11.708,28.122l9.444-35.906l-10.266-23.587c-0.308-0.707,0.016-1.53,0.722-1.838
			c0.707-0.308,1.53,0.015,1.838,0.722l8.853,20.342L236.868,142.602z"/>
	</g>
	<g>
		
			<ellipse transform="matrix(-0.3182 -0.948 0.948 -0.3182 39.7294 430.4879)" fill-rule="evenodd" clip-rule="evenodd" fill="#F8C3A5" cx="174.659" cy="200.958" rx="52.022" ry="23.89"/>
		<path fill-rule="evenodd" clip-rule="evenodd" fill="#FFFFFF" d="M158.744,157.225c-0.205-0.613,0.125-1.277,0.739-1.483
			c0.612-0.206,1.277,0.125,1.482,0.738l8.729,25.988l7.401-14.438c0.296-0.576,1.003-0.803,1.579-0.506
			c0.575,0.296,0.801,1.003,0.506,1.579l-8.442,16.469l9.827,29.25l7.097-23.221c0.188-0.62,0.844-0.97,1.462-0.782
			c0.619,0.188,0.969,0.844,0.781,1.463l-8.057,26.363l5.345,15.911l8.976-19c0.277-0.586,0.977-0.836,1.562-0.559
			c0.584,0.278,0.835,0.977,0.558,1.562l-10.018,21.204l1.496,4.453c0.251,0.138,0.456,0.366,0.554,0.66
			c0.206,0.615-0.125,1.282-0.741,1.488l-1.404,0.472l-2.137-6.364l-14.988-8.974c-0.556-0.332-0.737-1.053-0.404-1.608
			c0.332-0.556,1.052-0.737,1.607-0.405l12.635,7.565l-5.255-15.641l-23.698-16.04c-0.536-0.363-0.677-1.092-0.314-1.629
			c0.363-0.537,1.092-0.677,1.63-0.314l21.151,14.315l-9.913-29.509l-18.053-11.803c-0.54-0.353-0.694-1.079-0.34-1.619
			c0.353-0.542,1.079-0.695,1.621-0.341l15.568,10.179L158.744,157.225z"/>
	</g>
	<path fill-rule="evenodd" clip-rule="evenodd" fill="#DDD2CE" d="M201.028,287.267c95.944,0,174.197-10.433,174.197-23.226
		c0-12.793-78.253-23.226-174.197-23.226c-95.946,0-174.199,10.433-174.199,23.226C26.829,276.834,105.082,287.267,201.028,287.267z
		"/>
	<g>
		<path fill-rule="evenodd" clip-rule="evenodd" fill="#F5B895" d="M275.854,50.329c-5.206-0.045-1.547-7.112-3.725-8.084
			c-2.107-0.94,2.046-4.643,1.848-9.734c-0.048-1.262-0.334-2.892-0.334-3.898c0-4.511,5.616-6.437,9.322-6.437
			c7.739,0,7.889,1.971,11.022,9.637c2.642,6.47-5.637,17.848-2.613,24.613c3.082,6.893-1.318,3.516-8.293,4.769
			C278.248,62.063,290.077,50.453,275.854,50.329z"/>
		<g>
			<path fill-rule="evenodd" clip-rule="evenodd" fill="#3C322C" d="M314.586,238.343c-0.077,0.602,3.644,23.568,0.802,25.829
				c-5.51,4.383,7.262,10.211,4.757-1.272c-0.572-2.627,21.531-13.263-4.664-24.299
				C315.159,238.465,314.599,238.243,314.586,238.343z"/>
			<path fill-rule="evenodd" clip-rule="evenodd" fill="#3C322C" d="M326.646,246.852c0,0.001,5.21,25.081,0.641,15.662
				c-1.676-3.457-6.257-13.913-2.187-15.622C326.13,246.459,326.575,246.505,326.646,246.852z"/>
		</g>
		<g>
			<path fill-rule="evenodd" clip-rule="evenodd" fill="#3C322C" d="M274.081,246.631c-0.305,0.525-5.769,23.139-9.266,24.123
				c-6.778,1.906,2.737,12.227,4.879,0.668c0.489-2.642,24.987-3.886,5.113-24.207C274.562,246.965,274.131,246.544,274.081,246.631
				z"/>
			<path fill-rule="evenodd" clip-rule="evenodd" fill="#3C322C" d="M281.902,259.146c-0.001,0.003-4.911,25.142-5.475,14.689
				c-0.207-3.837-0.38-15.25,4.034-15.25C281.58,258.585,281.972,258.802,281.902,259.146z"/>
		</g>
		<path fill-rule="evenodd" clip-rule="evenodd" fill="#BDADA8" d="M307.244,64.602c0.172,0.164,14.766,26.262,16.712,30.024
			c3.124,6.042,2.344,6.301-2.826,10.851c-2.49,2.191-24.424,10.466-24.861,4.921c-0.783-9.972,17.804-10.485,14.005-15.939
			c-4.692-6.737-9.086-10.428-13.42-17.264C295.077,74.391,305.83,63.249,307.244,64.602z"/>
		<path fill-rule="evenodd" clip-rule="evenodd" fill="#F1A173" d="M319.608,237.752c-8.25-36.201-8.612-35.494-24.638-50.424
			c-10.795-10.056-4.765-1.124-10.136,12.703C287.611,203.961,329.6,281.603,319.608,237.752z"/>
		<path fill-rule="evenodd" clip-rule="evenodd" fill="#F5B895" d="M273.559,183.838c-0.056,0.186-2.265,76.141-0.381,75.586
			c2.896-0.851,23.042-42.096,18.736-52.841C288.303,197.573,289.098,177.059,273.559,183.838z"/>
		<path fill-rule="evenodd" clip-rule="evenodd" fill="#F5B895" d="M112.995,60.733c-4.195-6.559,3.474-1.529,6.541-5.586
			c0.927-1.227,0.322-4.727,0.244-7.814c-0.001-0.033,1.688-0.946,2.494-1.681c1.029-0.936-2.652-4.084-2.829-6.25
			c-0.152-1.865,0.529-1.176,0.489-2.973c-0.045-2.073-1.452-8.706-3.946-10.902c-8.465-7.45-28.154-0.665-16.403,22.755
			c0.896,1.787,2.185,4.172,1.758,6.498c-1.914,10.407,2.629,9.976,11.506,6.724C113.143,61.398,113.279,61.179,112.995,60.733z"/>
		<path fill-rule="evenodd" clip-rule="evenodd" fill="#3C322C" d="M154.912,250.329c1.772,6.234-9.708,16.4,12.206,11.656
			c0.076-0.017,15.862,3.57,16.012-4.205c0.096-4.988-7.349-1.305-12.786-3.48C163.239,251.458,154.836,250.06,154.912,250.329z"/>
		<path fill-rule="evenodd" clip-rule="evenodd" fill="#9A1915" d="M117.541,131.455c8.186,6.927,14.665,71.471,32.242,97.058
			c15.756,22.935,17.589,34.588-1.446,21.258c-9.74-6.821-21.267-18.926-21.506-38.9
			C126.818,209.631,69.705,165.269,117.541,131.455z"/>
		<path fill-rule="evenodd" clip-rule="evenodd" fill="#C61618" d="M120.277,138.589c2.778,1.69-37.224,58.258-37.878,88.313
			c-1.059,48.557-19.43,37.01-20.269,20.857c-2.308-44.42,11.945-23.483,11.945-79.113
			C74.075,136.998,127.82,112.595,120.277,138.589z"/>
		<path fill-rule="evenodd" clip-rule="evenodd" fill="#D44B16" d="M128.076,73.056c54.693,38.309,31.278,14.176,63.735,24.582
			c16.96,5.438-7.416,14.186-26.799,10.144c-9.047-1.886-64.69-2.641-42.519-31.105C122.509,76.656,128.985,73.694,128.076,73.056z"
			/>
		<path fill-rule="evenodd" clip-rule="evenodd" fill="#ED7331" d="M120.277,138.589c5.384-42.168,44.795-76.993-28.895-80.795
			c-15.494-0.8-14.177,11.955-6.684,28.662c6.189,13.798,13.309,28.482,9.95,35.651C85.298,142.058,115.59,143.273,120.277,138.589z
			"/>
		<path fill-rule="evenodd" clip-rule="evenodd" fill="#E35D13" d="M81.674,79.524c6.485,15.51,16.906,34.193,12.974,42.583
			c-4.485,9.571,0.153,14.829,6.711,17.193c-0.965-1.566-2.547-3.245-3.247-4.895c-2.135-5.034,0.214-12.776,1.425-18.025
			c1.21-4.93,3.204-10.159,3.245-15.251c0.079-9.744-3.596-22.311-14.811-23.92C85.723,77.208,83.591,78.038,81.674,79.524z"/>
		<path fill-rule="evenodd" clip-rule="evenodd" fill="#ED7331" d="M83.63,61.443C71.172,65.146,52.668,91.176,52.668,111.5
			c0,2.791-3.377,35.306,7.556,23.157c0.15-0.167,5.831-45.847,25.63-45.844C93.05,78.244,94.041,70.62,83.63,61.443z"/>
		<path fill-rule="evenodd" clip-rule="evenodd" fill="#F5B895" d="M189.859,100.129c2.284-1.048,8.173-5.07,12.947-5.786
			c2.423-0.363,4.422,1.369,6.741,0.997c2.325-0.374,1.809,3.825-0.224,3.769c-2.448-0.068-6.944-1.996-6.541,5.822
			c0.05,0.982-17.156,5.554-13.506-4.483C189.404,100.098,189.568,100.262,189.859,100.129z"/>
		<path fill-rule="evenodd" clip-rule="evenodd" fill="#3C322C" d="M75.019,254.235c2.975,1.778,2.422,5.13,6.995,7.966
			c4.321,2.678,3.092,8.242-0.996,9.483c-12.945,3.935-8.874,0.029-13.356-9.597C64.404,255.092,72.87,252.95,75.019,254.235z"/>
		<path fill-rule="evenodd" clip-rule="evenodd" fill="#3C322C" d="M109.047,26.275c10.533,6.224,16.745-7.088,10.34-5.552
			C114.08,21.997,109.1,9.9,96.613,23.042c-1.037,1.092-12.981-2.798-3.84,15.42c2.013,4.011,1.073,10.489,0,14.666
			c12.913,4.737,5.425-10.551,16.789-16.169C116.631,33.465,109.288,26.417,109.047,26.275z"/>
		<path fill-rule="evenodd" clip-rule="evenodd" fill="#F5B895" d="M103.52,33.94c2.379,0,4.689,2.713,5.157,6.06
			c0.468,3.347-1.082,6.06-3.462,6.06c-2.38,0-4.689-2.713-5.157-6.06C99.59,36.653,101.139,33.94,103.52,33.94z"/>
		<path fill-rule="evenodd" clip-rule="evenodd" fill="#F5B895" d="M58.428,132.313c0.709,1.492,3.642,1.341,5.338,3.472
			c1.567,1.97,0.485,4.021,2.11,5.015c0.011,0.007,2.521,0.071,1.322,2.117c-0.727,1.24-5.072-0.55-5.072,0.617
			c0,6.524,6.687,4.912,0.317,7.462c-4.444,1.779-8.813-4.518-8.813-8.405c0-4.165,0.032-7.691,3.832-10.261
			C57.538,132.28,58.417,132.292,58.428,132.313z"/>
		<path fill-rule="evenodd" clip-rule="evenodd" fill="#DDD2CE" d="M260.248,79.911c-5.055,13.384,12.28,11.621,12.28,22.512
			c0,9.424,1.447,24.9,5.798,28.571c0.158,0.133,27.955,9.711,25.671-14.308c-1.595-16.769-6.124-12.993,5.012-32
			c2.105-3.592,2.87-17.682-0.306-20.618c-12.915-11.942-25.515-9.622-31.079-6.624C267.322,62.995,261.424,76.798,260.248,79.911z"
			/>
		<path fill-rule="evenodd" clip-rule="evenodd" fill="#3C322C" d="M270.335,140.793c0,17.497,1.539,30.838,1.155,47.296
			c-0.163,6.919,15.26,1.752,22.018,5.519c2.795,1.559,13.214,3.492,15.702,0.105c8.21-11.179-7.687-20.941-1.259-34.386
			c8.982-18.784,10.92-37.808-17.063-45.148C274.578,109.902,270.335,122.937,270.335,140.793z"/>
		<path fill-rule="evenodd" clip-rule="evenodd" fill="#F1A173" d="M217.238,99.467c-3.461-5.096-10.674,0.045-15.706,0.216
			c-5.313,0.181-3.402,11.709-0.074,10.391c6.594-2.61,10.561-0.803,14.201-5.045C218.113,102.17,217.828,100.336,217.238,99.467z"
			/>
		<path fill-rule="evenodd" clip-rule="evenodd" fill="#DDD2CE" d="M270.861,64.725c4.048-9.494,27.918-0.32,15.159,17.95
			c-0.285,0.408-23.88,12.565-28.295,16.461c-7.92,6.988-32.169,7.73-42.065,5.894c-2.886-0.535-1.533-2.173-1.553-3.597
			c-0.022-1.458-1.346-2.717,1.96-4.178c20.296-8.971,30.418-3.01,53.114-28.634C269.708,68.026,270.586,65.369,270.861,64.725z"/>
		<path fill-rule="evenodd" clip-rule="evenodd" fill="#3C322C" d="M279.024,14.257c4.774,3.299,8.582,8.228,11.162,7.062
			c13.046-5.897,14.396,4.806,14.171,13.093c-0.247,9.057,19.155,0.979,19.908,19.254c0.471,11.412,22.842,3.119,10.541,22.171
			c-6.304,9.766-16.149-14.282-33.726,4.465c-3.597,3.837-25.449,0.372-12.248-15.729c4.756-5.802-9.567-0.341-5.319-16.938
			c3.271-12.775-0.069-17.765-9.847-18.43C263.635,28.524,268.379,6.901,279.024,14.257z"/>
	</g>
</g>
</svg>
